<!--?xml version="1.0" standalone="no"?-->              <svg id="sw-js-blob-svg" viewBox="0 0 100 100" xmlns="http://www.w3.org/2000/svg">                    <defs>                         <linearGradient id="sw-gradient" x1="0" x2="1" y1="1" y2="0">                            <stop id="stop1" stop-color="rgba(61.995, 255, 94.821, 1)" offset="0%"></stop>                            <stop id="stop2" stop-color="rgba(0, 44.789, 69.513, 1)" offset="100%"></stop>                        </linearGradient>                    </defs>                <path fill="url(#sw-gradient)" d="M16.8,-20.1C22.8,-18.7,29.5,-15.2,29.6,-10.7C29.7,-6.1,23.1,-0.3,19.6,5.1C16.1,10.5,15.6,15.7,12.8,21.7C10.1,27.8,5,34.8,0.1,34.7C-4.9,34.6,-9.8,27.4,-16,22.5C-22.2,17.5,-29.7,14.8,-32,9.9C-34.4,5,-31.5,-2.2,-29.1,-9.4C-26.6,-16.6,-24.7,-23.9,-19.9,-25.7C-15.1,-27.5,-7.6,-23.9,-1.1,-22.3C5.4,-20.8,10.7,-21.5,16.8,-20.1Z" width="100%" height="100%" transform="translate(50 50)" stroke-width="0" style="transition: 0.3s;" stroke="url(#sw-gradient)"></path>              </svg>