<svg xmlns="http://www.w3.org/2000/svg" width="1080" height="1080" xml:space="preserve"><path style="stroke:#940aff;stroke-width:0;stroke-dasharray:none;stroke-linecap:butt;stroke-dashoffset:0;stroke-linejoin:miter;stroke-miterlimit:4;fill:#e403ff;fill-rule:nonzero;opacity:1" vector-effect="non-scaling-stroke" transform="matrix(0 11.53 -.25 0 94.34 -53.33)" d="M94.75 50c0 6.213-5.236 11.25-11.696 11.25H16.946C10.486 61.25 5.25 56.213 5.25 50s5.236-11.25 11.696-11.25h66.107c6.461 0 11.697 5.037 11.697 11.25z" stroke-linecap="round" id="6e2fc3fd-e035-41c0-83cb-39b3c5124fb8"/><path style="stroke:#000;stroke-width:0;stroke-dasharray:none;stroke-linecap:butt;stroke-dashoffset:0;stroke-linejoin:miter;stroke-miterlimit:4;fill:#8100f8;fill-rule:nonzero;opacity:1" vector-effect="non-scaling-stroke" d="m0-35.47 11.56 23.3L37.29-8.4 18.68 9.8l4.38 25.67L0 23.42l-23.06 12.05 4.32-25.67-18.55-18.2 25.73-3.77z" transform="matrix(1.51 0 0 1.51 82.46 236.65)" id="92fa5ed0-4540-4f7d-9297-a711c27ab145"/><path style="stroke:#940aff;stroke-width:0;stroke-dasharray:none;stroke-linecap:butt;stroke-dashoffset:0;stroke-linejoin:miter;stroke-miterlimit:4;fill:#e403ff;fill-rule:nonzero;opacity:1" vector-effect="non-scaling-stroke" transform="matrix(0 11.53 -.25 0 770.12 -70.13)" d="M94.75 50c0 6.213-5.236 11.25-11.696 11.25H16.946C10.486 61.25 5.25 56.213 5.25 50s5.236-11.25 11.696-11.25h66.107c6.461 0 11.697 5.037 11.697 11.25z"/><path style="stroke:#940aff;stroke-width:0;stroke-dasharray:none;stroke-linecap:butt;stroke-dashoffset:0;stroke-linejoin:miter;stroke-miterlimit:4;fill:#e403ff;fill-rule:nonzero;opacity:1" vector-effect="non-scaling-stroke" transform="matrix(0 11.53 -.25 0 531.58 -36.5)" d="M94.75 50c0 6.213-5.236 11.25-11.696 11.25H16.946C10.486 61.25 5.25 56.213 5.25 50s5.236-11.25 11.696-11.25h66.107c6.461 0 11.697 5.037 11.697 11.25z"/><circle style="stroke:#000;stroke-width:0;stroke-dasharray:none;stroke-linecap:butt;stroke-dashoffset:0;stroke-linejoin:miter;stroke-miterlimit:4;fill:#aa3df1;fill-rule:nonzero;opacity:1" vector-effect="non-scaling-stroke" r="35" transform="matrix(1.24 0 0 1.24 518.7 205.06)" id="3998cac9-63de-4df3-ae91-10278ab51839"/><path style="stroke:#000;stroke-width:0;stroke-dasharray:none;stroke-linecap:butt;stroke-dashoffset:0;stroke-linejoin:miter;stroke-miterlimit:4;fill:#8100f8;fill-rule:nonzero;opacity:1" vector-effect="non-scaling-stroke" d="m0-35.47 11.56 23.3L37.29-8.4 18.68 9.8l4.38 25.67L0 23.42l-23.06 12.05 4.32-25.67-18.55-18.2 25.73-3.77z" transform="matrix(1.51 0 0 1.51 518.72 853.39)"/><path style="stroke:#940aff;stroke-width:0;stroke-dasharray:none;stroke-linecap:butt;stroke-dashoffset:0;stroke-linejoin:miter;stroke-miterlimit:4;fill:#e403ff;fill-rule:nonzero;opacity:1" vector-effect="non-scaling-stroke" transform="matrix(0 11.53 -.25 0 312.62 -51.25)" d="M94.75 50c0 6.213-5.236 11.25-11.696 11.25H16.946C10.486 61.25 5.25 56.213 5.25 50s5.236-11.25 11.696-11.25h66.107c6.461 0 11.697 5.037 11.697 11.25z"/><path style="stroke:#000;stroke-width:0;stroke-dasharray:none;stroke-linecap:butt;stroke-dashoffset:0;stroke-linejoin:miter;stroke-miterlimit:4;fill:#fe16fa;fill-rule:nonzero;opacity:1" vector-effect="non-scaling-stroke" d="M-18.54 32.11-37.08 0l18.54-32.11h37.08L37.08 0 18.54 32.11z" transform="matrix(1.37 0 0 1.37 83.39 785.76)" id="fc69e0ea-51be-40db-aa56-2669af5e7078"/><path style="stroke:#000;stroke-width:0;stroke-dasharray:none;stroke-linecap:butt;stroke-dashoffset:0;stroke-linejoin:miter;stroke-miterlimit:4;fill:#aa3df1;fill-rule:nonzero;opacity:1" vector-effect="non-scaling-stroke" transform="matrix(1.42 0 0 1.42 685.01 377.28)" d="m16.28 19.945 3.677-3.625c2.103-2.154 5.621-2.154 7.724 0l22.326 22.275L72.333 16.32c2.103-2.154 5.621-2.154 7.721 0l3.626 3.625c2.154 2.101 2.154 5.621 0 7.723L61.405 49.993 83.68 72.32c2.154 2.102 2.154 5.619 0 7.723l-3.626 3.678c-2.1 2.099-5.618 2.099-7.721 0L50.007 61.393 27.681 83.721c-2.103 2.099-5.621 2.099-7.724 0l-3.677-3.678c-2.1-2.104-2.1-5.621 0-7.723l22.326-22.327L16.28 27.667c-2.1-2.101-2.1-5.621 0-7.722z" stroke-linecap="round" id="b83721c8-9b25-49ad-b5a5-659d29cfeb7f"/><rect style="stroke:#aa3df1;stroke-width:0;stroke-dasharray:none;stroke-linecap:butt;stroke-dashoffset:0;stroke-linejoin:miter;stroke-miterlimit:4;fill:#aa3df1;fill-rule:nonzero;opacity:1" vector-effect="non-scaling-stroke" x="-33.084" y="-33.084" rx="0" ry="0" width="66.167" height="66.167" transform="matrix(.82 .82 -.83 .83 299.6 613.29)" id="da3d0adb-3418-406d-af13-4e92fa5f931d"/></svg>